<svg xmlns="http://www.w3.org/2000/svg" xmlns:xlink="http://www.w3.org/1999/xlink" height="72.8" preserveAspectRatio="xMidYMid meet" version="1.0" viewBox="5.4 13.6 89.2 72.8" width="89.2" zoomAndPan="magnify"><g><linearGradient xmlns:xlink="http://www.w3.org/1999/xlink" gradientUnits="userSpaceOnUse" id="a" x1="5.412" x2="94.588" xlink:actuate="onLoad" xlink:show="other" xlink:type="simple" y1="50" y2="50" fill="#000000"><stop offset="0" stop-color="#673ab7" fill="#000000"/><stop offset="1" stop-color="#3698d5" fill="#000000"/></linearGradient><path d="M49,85.397v-68.31l-6.614,6.887c-0.382,0.397-1.017,0.412-1.414,0.028 c-0.398-0.382-0.411-1.016-0.029-1.414l8.336-8.68c0.003-0.003,0.006-0.003,0.009-0.006c0.181-0.185,0.433-0.301,0.713-0.301 s0.531,0.116,0.713,0.301c0.003,0.003,0.006,0.003,0.009,0.006l8.336,8.68c0.382,0.398,0.369,1.032-0.029,1.414 c-0.193,0.186-0.443,0.279-0.692,0.279c-0.263,0-0.524-0.103-0.722-0.307L51,17.088v68.31c0,0.553-0.447,1-1,1S49,85.95,49,85.397z M15.813,14.278c-0.385-0.397-1.017-0.411-1.414-0.028l-8.68,8.336c-0.002,0.002-0.003,0.005-0.005,0.008 c-0.089,0.087-0.159,0.19-0.211,0.305c-0.003,0.006-0.009,0.011-0.012,0.017c-0.051,0.12-0.08,0.252-0.08,0.391 s0.029,0.271,0.08,0.391c0.003,0.006,0.009,0.011,0.012,0.017c0.052,0.115,0.122,0.218,0.211,0.305 c0.002,0.002,0.003,0.005,0.005,0.008l8.68,8.336c0.193,0.187,0.443,0.279,0.692,0.279c0.263,0,0.525-0.103,0.722-0.307 c0.382-0.398,0.369-1.032-0.029-1.414l-6.887-6.615h10.538c6.144,0,11.143,4.999,11.143,11.143v49.58c0,0.553,0.447,1,1,1 s1-0.447,1-1v-49.58c0-7.247-5.896-13.143-13.143-13.143H8.897l6.887-6.615C16.183,15.31,16.195,14.676,15.813,14.278z M94.286,24.02c0.09-0.088,0.161-0.192,0.213-0.308c0.002-0.005,0.007-0.009,0.009-0.014c0.051-0.12,0.08-0.253,0.08-0.392 s-0.029-0.271-0.08-0.392c-0.002-0.005-0.007-0.009-0.009-0.014c-0.052-0.116-0.123-0.221-0.213-0.308 c-0.002-0.002-0.003-0.005-0.005-0.008l-8.68-8.336c-0.397-0.383-1.031-0.369-1.414,0.028c-0.382,0.398-0.369,1.032,0.029,1.414 l6.887,6.615H80.565c-7.247,0-13.143,5.896-13.143,13.143v49.58c0,0.553,0.447,1,1,1s1-0.447,1-1v-49.58 c0-6.144,4.999-11.143,11.143-11.143h10.538l-6.887,6.615c-0.398,0.382-0.411,1.016-0.029,1.414 c0.197,0.204,0.459,0.307,0.722,0.307c0.249,0,0.499-0.093,0.692-0.279l8.68-8.336C94.283,24.026,94.283,24.022,94.286,24.02z" fill="url(#a)"/></g></svg>