<svg xmlns="http://www.w3.org/2000/svg" xmlns:xlink="http://www.w3.org/1999/xlink" height="242.3" preserveAspectRatio="xMidYMid meet" version="1.0" viewBox="-0.4 0.0 405.0 242.3" width="405.0" zoomAndPan="magnify"><g data-name="Layer 2"><g id="change1_1"><path d="M96.33,228.8l-1.49,4.93c-2.89,2.14-10.23.74-10.23.74l2-5.95Zm-48.88,5.63,2-6.07-9.32-.66-2,5.54C39.88,235.86,47.45,234.43,47.45,234.43Z" fill="#fff"/></g><g id="change2_1"><path d="M362.07,225.94s-2.79,13-3,13.58-20.46.93-20.09-.37,9.12-4.65,9.12-4.65l1.49-9.49Zm27.7.19.37,8.74s-8.37,2.79-8.75,4.28,21.77.37,21.77.37l-.37-13.77Z" fill="inherit"/></g><g id="change3_1"><path d="M141.26,24.7V45.84A1.22,1.22,0,0,1,140,47.05H101.77a1.22,1.22,0,0,0-.67.2L82,59.83a1.21,1.21,0,0,1-1.78-1.49l4.07-9.6a1.22,1.22,0,0,0-1.12-1.69H74.05a1.22,1.22,0,0,1-1.22-1.21V24.7a1.22,1.22,0,0,1,1.22-1.21h66A1.22,1.22,0,0,1,141.26,24.7Z" fill="#3698d5"/></g><g id="change4_1"><path d="M327,109.82c-4.61-.83-15.07-5.72-16.75-6.83a2.61,2.61,0,0,1-1.39-2.52c-1.4-.69-.28-2.23-.28-2.23a1.83,1.83,0,0,1,.28-3.07,37.16,37.16,0,0,0,10.74,3.63s-5.44-6.7-4.32-7.26,8.51,6.42,9.9,7.68,6.28,1.53,6.28,1.53Z" fill="#f2dcd1"/></g><g id="change5_1"><path d="M384.79,226.94l-6.41-37c-7.75,20.32-14.61,37.59-14.61,37.59L348.33,226l10-88L400,127.13c-.33,2.81-2.15,8.94-4.8,16.84l.43-1.12,8.93,83.9Z" fill="#e5bfa7"/></g><g id="change3_2"><path d="M361.16,76.89s-4.18-1.81-1.39-6.28,8.09-5.86,8.65-10.88-10.75-13-10.75-13,.42-7.81,12-7.25,11.86,11.72,10.89,19.25-1.68,9.49,2.37,14.1,4.74,10.74,2.37,13.53S374.84,90,374.84,90l-9.49-3.07Z" fill="#3698d5"/></g><g id="change3_3"><path d="M312.23,226.61a21,21,0,0,1,2.31,13.79l-.08.36H303.39v.1H263.94l-.05-.4a34.65,34.65,0,0,1,.52-9.56A41.9,41.9,0,0,1,273.84,211a12.18,12.18,0,0,0,0-8.72c-1.35-3.67-2.45-13,1.19-17.84a8,8,0,0,1,7.45-3.13,10.57,10.57,0,0,1,7.83,4c4.13,5.11,4.54,14.14,3.63,20.31a29.17,29.17,0,0,0,.46,11.57c3.1-2.15,3.47-4.27,3.94-7,.14-.81.28-1.65.51-2.55,1.19-4.78,6.17-8.2,10.44-7.18a7.74,7.74,0,0,1,4.9,4.67,10.49,10.49,0,0,1-.62,9.51C310.39,220.07,312.06,226.06,312.23,226.61Z" fill="#3698d5"/></g><g id="change3_4"><path d="M286.87,170.94H168.1a6.75,6.75,0,0,1-6.75-6.75V51a6.76,6.76,0,0,1,6.75-6.76H286.87A6.76,6.76,0,0,1,293.63,51V164.19A6.76,6.76,0,0,1,286.87,170.94Z" fill="#3698d5"/></g><g id="change2_2"><path d="M280.18,165.73H161.41a7.13,7.13,0,0,1-7.13-7.12V45.41a7.13,7.13,0,0,1,7.13-7.12H280.18a7.13,7.13,0,0,1,7.13,7.12v113.2A7.13,7.13,0,0,1,280.18,165.73ZM161.41,39A6.38,6.38,0,0,0,155,45.41v113.2a6.38,6.38,0,0,0,6.38,6.37H280.18a6.39,6.39,0,0,0,6.38-6.37V45.41A6.39,6.39,0,0,0,280.18,39Z" fill="inherit"/></g><g id="change1_2"><path d="M18.83,183.57l-9.37,3A3.54,3.54,0,0,1,5,184.27L.54,170.2a3.56,3.56,0,0,1,2-4.34l8.72-3.71Z" fill="#fff"/></g><g id="change2_3"><path d="M8.37,187.13a4,4,0,0,1-1.8-.44,3.91,3.91,0,0,1-1.94-2.31L.19,170.31a3.91,3.91,0,0,1,2.2-4.8l8.72-3.71a.39.39,0,0,1,.3,0,.4.4,0,0,1,.2.22l7.57,21.42a.33.33,0,0,1,0,.29.35.35,0,0,1-.22.19l-9.36,3A3.87,3.87,0,0,1,8.37,187.13ZM11,162.65,2.69,166.2A3.17,3.17,0,0,0,.9,170.08l4.44,14.08A3.16,3.16,0,0,0,6.92,186a3.11,3.11,0,0,0,2.43.2l9-2.89Z" fill="inherit"/></g><g id="change1_3"><path d="M214.37,93.36,242.28,97l-20.09,20.09-16.75,2,.84-19.81Z" fill="#fff"/></g><g id="change2_4"><path d="M205.44,119.41a.39.39,0,0,1-.25-.1.36.36,0,0,1-.12-.29l.83-19.82a.39.39,0,0,1,.16-.28l8.09-5.87a.42.42,0,0,1,.27-.06l27.91,3.62a.37.37,0,0,1,.3.26.34.34,0,0,1-.09.38l-20.09,20.09a.39.39,0,0,1-.22.11l-16.74,2Zm1.21-20-.81,19.19L222,116.72l19.47-19.46-27-3.51Z" fill="inherit"/></g><g id="change2_5"><path d="M51.4,103.68s-2.52-6,2-10.32,8.09-4.89,10.33-10.89,2.23-14.93,14.93-14.79,11.72,11,10.74,15.07-2.09,9.77.28,14.38,1.39,12.69-2.09,13.25S51.4,103.68,51.4,103.68Z" fill="inherit"/></g><g id="change2_6"><path d="M90,234.75a12.6,12.6,0,0,1-5.16-1.1.38.38,0,0,1-.18-.47l2.09-5.72a.34.34,0,0,1,.37-.24l9.21.56a.36.36,0,0,1,.29.15.43.43,0,0,1,0,.33l-1.53,5.16a.38.38,0,0,1-.2.23A11.57,11.57,0,0,1,90,234.75Zm-4.52-1.64a11.69,11.69,0,0,0,9-.07l1.35-4.54L87.38,228Z" fill="inherit"/></g><g id="change1_4"><path d="M67,146.24s25.31,31.4,27,37.35,6.14,44.84,6.14,44.84L84,228.8s-6-35.91-8.55-39.63-4.28-4.65-4.28-4.65l-14-30.32Z" fill="#fff"/></g><g id="change2_7"><path d="M84,229.17a.38.38,0,0,1-.37-.31c-.06-.36-6-35.86-8.49-39.47s-4.14-4.53-4.16-4.54a.41.41,0,0,1-.15-.17l-14-30.33a.38.38,0,0,1,.11-.45l9.86-8a.39.39,0,0,1,.27-.08.4.4,0,0,1,.26.14c1,1.28,25.37,31.52,27,37.48s6,43.31,6.15,44.89a.34.34,0,0,1-.09.29.37.37,0,0,1-.27.13L84,229.17ZM71.41,184.26A17.7,17.7,0,0,1,75.7,189c2.52,3.6,7.93,35.65,8.57,39.46l15.45-.36c-.48-4.17-4.52-38.84-6.08-44.37S69.53,150,67,146.77l-9.34,7.53Z" fill="inherit"/></g><g id="change3_5"><path d="M78.74,95.87s9.07,8.37,13.26,11,4.19,3.63,8.65,5.45,21.07,8.93,21.07,8.93-4.46,5.72-9.35,6.14c0,0-18.14-5-21.49-6.56a51.26,51.26,0,0,1-7.81-5,26.85,26.85,0,0,1-5.16,7.68c-3.77,4-10.89,22.74-10.89,22.74l-24.55-8.51,5.3-9.49s-11.44-5.58-9.49-10.18,11.16-14.24,13.26-16.47,7.25-11.3,18.83-10.74C70.37,90.85,72.88,96.15,78.74,95.87Z" fill="#3698d5"/></g><g id="change1_5"><path d="M67,146.24s3.17,27.68,4.1,38.28S51,228.24,51,228.24l-16.18-.93,18.23-42S41.54,167,38.74,157.36s3.73-19.63,3.73-19.63Z" fill="#fff"/></g><g id="change2_8"><path d="M51,228.62h0l-16.18-.93a.38.38,0,0,1-.3-.18.4.4,0,0,1,0-.35L52.65,185.3c-1.17-1.87-11.63-18.72-14.27-27.84-2.8-9.72,3.71-19.83,3.77-19.93a.37.37,0,0,1,.44-.15l24.56,8.51a.4.4,0,0,1,.25.31c0,.28,3.17,27.8,4.09,38.29s-19.29,42.6-20.15,43.95A.38.38,0,0,1,51,228.62ZM35.4,227l15.42.89c1.69-2.69,20.8-33.36,19.92-43.31s-3.75-35.32-4.06-38l-24.05-8.34c-1,1.59-6,10.51-3.52,19.07,2.74,9.52,14.16,27.63,14.28,27.82a.39.39,0,0,1,0,.35Z" fill="inherit"/></g><g id="change1_6"><path d="M85.16,76.47S89.49,92.24,78.88,91l-.14,4.88s-4.46.84-8.37-5l2.79-5.44a3.25,3.25,0,0,1-1.81-3.21c.28-2.24,2-2,2-2S79.3,82.47,85.16,76.47Z" fill="#fff"/></g><g id="change2_9"><path d="M78.11,96.29c-1.46,0-4.93-.55-8-5.24a.38.38,0,0,1,0-.37l2.62-5.12A3.53,3.53,0,0,1,71,82.15a2.66,2.66,0,0,1,1-1.9,2,2,0,0,1,1.43-.38c.31.11,5.93,2.09,11.54-3.66a.39.39,0,0,1,.36-.1.41.41,0,0,1,.27.27c.1.37,2.47,9.19-1,13.17a5.94,5.94,0,0,1-5.32,1.85l-.13,4.48a.37.37,0,0,1-.31.36A3.83,3.83,0,0,1,78.11,96.29Zm-7.3-5.47c3.15,4.6,6.56,4.77,7.57,4.71L78.51,91a.37.37,0,0,1,.13-.28.38.38,0,0,1,.29-.09c2.25.27,4-.25,5.07-1.55,2.67-3.09,1.43-9.77,1-11.85-5.73,5.43-11.56,3.46-11.78,3.39a1.36,1.36,0,0,0-.81.25,2,2,0,0,0-.65,1.39,2.87,2.87,0,0,0,1.6,2.83.37.37,0,0,1,.2.21.44.44,0,0,1,0,.3Z" fill="inherit"/></g><g id="change2_10"><path d="M43,234.75a12.66,12.66,0,0,1-5.16-1.1.38.38,0,0,1-.18-.47l2.09-5.72a.34.34,0,0,1,.38-.24l9.2.56a.36.36,0,0,1,.29.15.39.39,0,0,1,0,.33l-1.53,5.16a.35.35,0,0,1-.2.23A11.54,11.54,0,0,1,43,234.75Zm-4.52-1.64a11.69,11.69,0,0,0,9-.07l1.35-4.54L40.35,228Z" fill="inherit"/></g><g id="change2_11"><path d="M94.59,233.31s11.91,5.39,12.76,6.53-25.25.28-25.25.28l2.55-6.81A11.59,11.59,0,0,0,94.59,233.31Zm-57,0-2.56,6.81s26.11.85,25.26-.28-12.77-6.53-12.77-6.53A11.57,11.57,0,0,1,37.63,233.31Z" fill="inherit"/></g><g id="change1_7"><path d="M214.37,93.36a6.07,6.07,0,0,0-2.51,4.46c-.28,3.07,5,3.91,5,3.91s-2.79,1.68-2.23,4.19,4.75,3.62,4.75,3.62-2.8,1.4-2.24,4.19,5,3.35,5,3.35L16.79,185.17,9.26,162Z" fill="#fff"/></g><g id="change2_12"><path d="M16.79,185.55a.53.53,0,0,1-.17,0,.39.39,0,0,1-.18-.22L8.9,162.13a.38.38,0,0,1,.24-.48L214.25,93a.38.38,0,0,1,.32.68,5.75,5.75,0,0,0-2.34,4.18c-.24,2.68,4.66,3.49,4.71,3.5a.36.36,0,0,1,.31.3.38.38,0,0,1-.17.39s-2.55,1.57-2.06,3.79,4.43,3.33,4.47,3.34a.37.37,0,0,1,.07.7c-.1.05-2.52,1.31-2,3.78s4.66,3,4.7,3a.37.37,0,0,1,.33.33.36.36,0,0,1-.26.39L16.91,185.53Zm-7.06-23.3L17,184.7l203.73-67.54c-1.44-.42-3.56-1.36-4-3.36a4.16,4.16,0,0,1,1.75-4.14c-1.29-.47-3.8-1.63-4.26-3.66a4.28,4.28,0,0,1,1.71-4.08c-1.56-.39-4.74-1.52-4.5-4.13a6.52,6.52,0,0,1,1.4-3.54Z" fill="inherit"/></g><g id="change1_8"><path d="M75.58,130.94s8.19,4.28,9.77,5.49,2.51,7.44,1.67,8-1.3-1.21-1.3-1.21.09,2.42-.74,2.6-1-2.51-1-2.51,0,2.51-.55,2.51-.84-2.88-.84-2.88,0,1.4-.56,1.67-1-2-1.58-4.27-7.07-4.56-7.07-4.56Z" fill="#fff"/></g><g id="change2_13"><path d="M84.89,146.21a.68.68,0,0,1-.44-.16,1.33,1.33,0,0,1-.38-.48c-.22.63-.54.63-.67.63s-.62,0-1-1.47a.85.85,0,0,1-.28.22.61.61,0,0,1-.51,0c-.57-.27-.89-1.52-1.45-3.89l-.16-.65c-.41-1.74-5.06-3.69-6.82-4.29a.39.39,0,0,1-.23-.21.35.35,0,0,1,0-.3l2.23-4.84a.35.35,0,0,1,.22-.19.35.35,0,0,1,.3,0c.33.17,8.23,4.31,9.82,5.52,1.43,1.09,2.19,5.26,2.13,7.16,0,.79-.18,1.25-.48,1.45a.88.88,0,0,1-.83.12,1.34,1.34,0,0,1-.37-.25c-.11.72-.37,1.45-1,1.58ZM84,142.94a.38.38,0,0,1,.38.35,4,4,0,0,0,.58,2.17c.26-.06.48-1.14.44-2.23a.37.37,0,0,1,.73-.11c.1.38.36.95.59,1a.18.18,0,0,0,.15,0,4.07,4.07,0,0,0,.1-1.93c-.18-2.11-.92-4.79-1.8-5.46-1.35-1-7.79-4.44-9.36-5.27l-1.9,4.1c1.53.56,6.4,2.5,6.92,4.69l.16.65a16.81,16.81,0,0,0,1,3.3,2.62,2.62,0,0,0,.27-1.26.37.37,0,0,1,.36-.37.36.36,0,0,1,.39.33,10.71,10.71,0,0,0,.45,2.36,8.57,8.57,0,0,0,.2-1.95.37.37,0,0,1,.36-.37Z" fill="inherit"/></g><g id="change1_9"><path d="M121,122.29a39.9,39.9,0,0,1,7.72.56c2.42.65,5.21,3.25,4.28,3.53s-3.82-.74-5.31-1.3-4,0-6,.28a20.25,20.25,0,0,1-4.37,0Z" fill="#fff"/></g><g id="change2_14"><path d="M132.59,126.81c-.62,0-2-.22-5-1.38-1.15-.43-3.06-.13-4.75.14l-1,.16a20.67,20.67,0,0,1-4.46,0,.37.37,0,0,1-.2-.66l3.63-3.07a.43.43,0,0,1,.23-.09,40.35,40.35,0,0,1,7.83.57c2,.55,4.72,2.63,4.74,3.66a.6.6,0,0,1-.46.6A1.34,1.34,0,0,1,132.59,126.81ZM126,124.47a5.15,5.15,0,0,1,1.77.26c3.36,1.26,4.54,1.36,4.94,1.31a8.2,8.2,0,0,0-4.15-2.83,39,39,0,0,0-7.48-.55l-2.84,2.4a18.76,18.76,0,0,0,3.39-.07l1-.16A23.26,23.26,0,0,1,126,124.47Z" fill="inherit"/></g><g id="change1_10"><path d="M216.88 101.73L12.4 171.5" fill="#fff"/></g><g id="change1_11"><path d="M219.12 109.54L14.91 179.1" fill="#fff"/></g><g id="change2_15"><path d="M12.4,171.87a.37.37,0,0,1-.36-.25.38.38,0,0,1,.24-.48l204.48-69.76a.37.37,0,0,1,.48.23.36.36,0,0,1-.24.47L12.52,171.85A.25.25,0,0,1,12.4,171.87ZM15,179.46,219.24,109.9a.38.38,0,0,0,.23-.48.37.37,0,0,0-.47-.23L14.79,178.75a.37.37,0,0,0-.24.47.38.38,0,0,0,.36.26Z" fill="inherit"/></g><g id="change3_6"><path d="M24.14,157.38l8.19,22.21-12,4-7.63-22.37Z" fill="#3698d5"/></g><g id="change2_16"><path d="M242.28,97l-9.07,8.93c-3.49-1.82-3.91-10.47-3.91-10.47Z" fill="inherit"/></g><g id="change1_12"><path d="M276.93,84.34c-8.61,14.72-14.12,13.09-23.25,10.4l-.62-.18c-3.58-1.06-6.38-1-8.32.07a4.48,4.48,0,0,0-2.1,2.45.36.36,0,0,1-.36.28h-.09a.38.38,0,0,1-.28-.45A5.09,5.09,0,0,1,244.34,94c2.13-1.22,5.14-1.27,8.93-.15l.62.18C263,96.7,268,98.17,276.28,84a.37.37,0,0,1,.51-.13A.37.37,0,0,1,276.93,84.34Zm1.43-21.49a.37.37,0,0,0-.45-.27c-11,2.78-20.52,11.52-26.23,16.74-2.37,2.16-4.81,4.4-5.36,4.2s-.54-1.3-.26-2.86c.24-1.35.49-2.75-.15-3.64a1.93,1.93,0,0,0-1.34-.78c-1.93-.31-3.42.87-4.72,1.93-1.11.88-2.06,1.65-3.07,1.43-.7-.16-.7-.77-.53-2.13a3.82,3.82,0,0,0-.39-2.93,2.56,2.56,0,0,0-1.93-.81c-2.47-.18-5.26,2.1-7.71,4.11-1.8,1.47-3.5,2.87-4.59,2.87a.47.47,0,0,1-.38-.14c-.37-.42-.23-1.75-.1-3,.2-1.8.41-3.84-.53-5a2.35,2.35,0,0,0-1.76-.8c-2.31-.11-4.91,3.1-7.66,6.54-2.91,3.64-5.89,7.42-8.51,7.13a.66.66,0,0,1-.6-.34c-.69-1.3,1.69-5.81,3.8-9.79,2.58-4.88,5-9.5,4.14-11.52a1.63,1.63,0,0,0-1.14-.94c-5.47-1.45-30.82,23.59-31.9,24.65a.38.38,0,0,0,0,.53.35.35,0,0,0,.27.11.34.34,0,0,0,.26-.11c7.25-7.17,27-25.55,31.18-24.46a.89.89,0,0,1,.64.53c.74,1.68-1.84,6.56-4.11,10.86-2.51,4.74-4.68,8.84-3.8,10.5a1.43,1.43,0,0,0,1.18.73c3,.31,6.13-3.62,9.17-7.41,2.47-3.08,5-6.27,6.93-6.27h.1a1.64,1.64,0,0,1,1.23.54c.74.88.54,2.75.37,4.4s-.32,2.94.29,3.61a1.18,1.18,0,0,0,.93.39c1.36,0,3.08-1.41,5.07-3,2.34-1.92,5-4.08,7.18-3.94a1.86,1.86,0,0,1,1.4.54,3.3,3.3,0,0,1,.22,2.36c-.14,1.17-.32,2.63,1.12,3s2.49-.61,3.7-1.58,2.53-2,4.13-1.77a1.21,1.21,0,0,1,.85.47c.45.64.23,1.88,0,3.08-.28,1.57-.57,3.2.73,3.69.94.35,2.47-1,6.14-4.35,5.66-5.17,15.12-13.83,25.9-16.57A.37.37,0,0,0,278.36,62.85Zm-19.27,64.7c-4.69-2.56-13-4.48-26.16.9a.38.38,0,0,0,.28.7c12.85-5.27,21-3.42,25.52-.94a14.9,14.9,0,0,1,7.74,9.87c1.27,6.83-4.46,11.66-17,14.35-8.59,1.84-23.62,2.27-29.86-4.1-2.62-2.66-3.41-6.29-2.35-10.79,4.05-17.3,24.47-13.71,24.68-13.67a.38.38,0,0,0,.44-.3.38.38,0,0,0-.3-.44c-.21,0-21.33-3.76-25.55,14.24-1.12,4.76-.26,8.63,2.54,11.49,4,4.12,11.57,5.5,18.78,5.5a58.17,58.17,0,0,0,11.77-1.19c12.85-2.75,18.93-8,17.6-15.23A15.7,15.7,0,0,0,259.09,127.55Zm-25.57,20.59h.11a.38.38,0,0,0,.31-.16c.09-.13,9.24-13.3,19.3-15.47a.39.39,0,0,0,.29-.45.38.38,0,0,0-.45-.29c-8.89,1.93-16.8,11.78-19.1,14.87l-.26-10.6a.37.37,0,0,0-.38-.37.39.39,0,0,0-.37.39l.28,11.72A.4.4,0,0,0,233.52,148.14Z" fill="#fff"/></g><g id="change1_13"><path d="M242.41,230.77l9,0-.36,9-8.92.37Z" fill="#fff"/></g><g id="change2_17"><path d="M242.14,240.52a.36.36,0,0,1-.26-.11.33.33,0,0,1-.11-.28l.27-9.37a.37.37,0,0,1,.37-.37h0l9,0a.4.4,0,0,1,.27.12.39.39,0,0,1,.11.27l-.36,9a.38.38,0,0,1-.36.36l-8.92.37Zm.64-9.38-.25,8.61,8.17-.33.33-8.26Z" fill="inherit"/></g><g id="change2_18"><path d="M248.21,239.84s4-5,.28-9.38l7-12.51a.6.6,0,0,1,1.13.32L256,240.7a1.09,1.09,0,0,1-1.39,1Z" fill="inherit"/></g><g id="change1_14"><path d="M161.5,222.1l42.4,1.82,38.75,6.25v11.7h-81Z" fill="#fff"/></g><g id="change2_19"><path d="M242.65,242.25h-81a.38.38,0,0,1-.38-.38l-.13-19.76a.36.36,0,0,1,.12-.28.38.38,0,0,1,.27-.1l42.4,1.82,38.8,6.25a.38.38,0,0,1,.32.37v11.7A.38.38,0,0,1,242.65,242.25ZM162,241.5h80.28v-11l-38.44-6.2-42-1.8Z" fill="inherit"/></g><g id="change1_15"><path d="M225.05,227.67l3.85,9-9-.09-4.23-8.91Z" fill="#fff"/></g><g id="change2_20"><path d="M228.9,237.05h0l-9-.1a.36.36,0,0,1-.33-.21l-4.24-8.91a.36.36,0,0,1,0-.36.38.38,0,0,1,.32-.18h9.38a.37.37,0,0,1,.34.23l3.85,9a.36.36,0,0,1,0,.35A.37.37,0,0,1,228.9,237.05Zm-8.76-.85,8.19.09L224.8,228h-8.54Z" fill="inherit"/></g><g id="change2_21"><path d="M218.55,233.73s5.1,3.87,9.39,0l12.7,6.62a.6.6,0,0,1-.28,1.14H217.92a1.08,1.08,0,0,1-1-1.36Z" fill="inherit"/></g><g id="change1_16"><path d="M163.06,216.9l33.75-20.25a9,9,0,0,1,12.45,3.23l19.68,29.59-12,4.1-14.25-13.65-34.65,22H137.31c-11.71-4.68-2.6-23.15-2.6-23.15Z" fill="#fff"/></g><g id="change2_22"><path d="M168,242.25H137.31a.32.32,0,0,1-.14,0,9.19,9.19,0,0,1-5.4-5.36c-2.78-7.25,2.38-17.86,2.6-18.3a.38.38,0,0,1,.31-.21l28.26-1.82,33.67-20.2a9.4,9.4,0,0,1,13,3.36l19.67,29.58a.38.38,0,0,1,0,.33.39.39,0,0,1-.24.23l-12,4.09a.4.4,0,0,1-.38-.08l-14-13.44-34.4,21.79A.36.36,0,0,1,168,242.25Zm-30.62-.75h30.51l34.56-21.89a.36.36,0,0,1,.46,0L217,233.14l11.37-3.86L209,200.09A8.65,8.65,0,0,0,197,197l-33.75,20.25a.34.34,0,0,1-.17.05L135,219.08c-.69,1.48-4.94,11.09-2.48,17.51A8.43,8.43,0,0,0,137.38,241.5Z" fill="inherit"/></g><g id="change5_2"><path d="M144.85,181.58s-1.56-15.6,1.69-23.28c3.1-7.31,13.14-2.21,13.14-2.21,4.16,18.73-4.68,15.09-4.68,15.09s.52,10.14.52,10.4Z" fill="#e5bfa7"/></g><g id="change5_3"><path d="M130.68,191.47c-5.73.52-12.88.39-12.88.39-7-.52-5.59-5.07-5.59-5.07l6.11-33.95c-.26-1.3-.52-3.12-.52-3.12l.39-5.33a2.25,2.25,0,0,1,1.3-2.6l.78,3.38.39-4a3.42,3.42,0,0,1,1-2.44.23.23,0,0,1,.36.12l.45,2.06.52,2.6.13-1.43V140c0-1,1.13-1.57,1.61-1.75a.19.19,0,0,1,.25.14l.87,4.6-.52,2.86,1.43-2.21c0-2.6,1.57-2.86,1.57-2.86l.26,3.64-1,2.37a1.07,1.07,0,0,0,1.32,1.42l3.8-1.24-8.57,6.81-.78,28.61,7.55-1.56Zm45.77-6.89,12.45-4.9a4.3,4.3,0,0,0,2.62-4.93l-8.17-36.34-.52-2.86-3.38-6.25-2.87-4.16a3.39,3.39,0,0,0-1.33-1.31.24.24,0,0,0-.36.27l.39,1.56,1.3,2.86-3.12-3.9a3.11,3.11,0,0,0-2-1.74.52.52,0,0,0-.62.67l.79,2.37,3.64,5.72-5.46-5.72a3.15,3.15,0,0,0-2.22-1.76.54.54,0,0,0-.63.71l1,2.87,3.9,5.2-3.9-3.12a2.92,2.92,0,0,0-2.57-1.55.5.5,0,0,0-.5.7l1.51,3.45,3.77,2.31-6,2,11.69,2,6,32.77-7.55,1.56Z" fill="#e5bfa7"/></g><g id="change2_23"><path d="M152.92,169.36s-6,4.94-10.15,0c0,0-6.76-12.49,4.42-15.87a57.59,57.59,0,0,0,9.09-3.72,6.65,6.65,0,0,1,4.88-.67c2.53.65,5.33,2.29,3.2,6.47-3.64,7.14-9.62,7.29-9.62,7.29s-3.39-1.56-3.39.78a4,4,0,0,0,2.09,3.38Z" fill="inherit"/></g><g id="change3_7"><path d="M155.78,176.9l10.92-2.6,11.71-2.86,2.34,12.23-11.32,4.81L164,218.65s-13.36,1.11-17,3.48c-12.66,8.22-17.34,3.54-17.34,3.54l4.16-31.47H127l.26-13.53,16.91-2.6S148,183.67,155.78,176.9Z" fill="#3698d5"/></g><g id="change2_24"><path d="M309.78,214.75a10.89,10.89,0,0,0,.64-9.85,8.17,8.17,0,0,0-5.16-4.89c-3.74-.88-8,1.48-10,5.21h0a9.34,9.34,0,0,0-.89,2.25c-.23.93-.38,1.8-.51,2.57-.44,2.59-.77,4.49-3.34,6.44a29,29,0,0,1-.32-10.88c.91-6.25.49-15.39-3.71-20.59a11.39,11.39,0,0,0-10.88-4l-.11,0a7.94,7.94,0,0,0-4.89,3.09c-3.72,5-2.61,14.46-1.23,18.2a12,12,0,0,1,.07,8.39,42.34,42.34,0,0,0-9.48,20,35.25,35.25,0,0,0-.53,9.67l.05.4a.37.37,0,0,0,.37.33h0L296.4,241a.26.26,0,0,0,.15,0h0a.29.29,0,0,0,.16,0h13.66a.38.38,0,0,0,.37-.3l.08-.36a21.24,21.24,0,0,0-2.31-14A15.71,15.71,0,0,1,309.78,214.75Zm0-9.55a10.15,10.15,0,0,1-.59,9.17,16.45,16.45,0,0,0-1.44,11.88c-4.92,1.25-8.87,5.27-10.43,7.07.65-9.68,2.55-26.14,8-32.51A7.52,7.52,0,0,1,309.73,205.2Zm-13.78.3a9.63,9.63,0,0,1,1.18-1.71c0,2.73,1.62,5.58,2.69,7.2-.26,1-.51,1.94-.73,2.95C298,212.49,295.56,208.71,296,205.5Zm8.53-4.86a27.75,27.75,0,0,0-4.39,9.38c-1.1-1.77-2.48-4.56-2.18-7A8.29,8.29,0,0,1,304.48,200.64Zm-15,4.85a29.7,29.7,0,0,0,.46,11.72.37.37,0,0,0,.23.26.35.35,0,0,0,.34-.05c3.25-2.24,3.63-4.45,4.11-7.25.13-.76.27-1.62.5-2.52,0-.15.09-.3.13-.44.43,3.3,2.78,6.59,3.61,7.64l0,0a148.88,148.88,0,0,0-2.68,25.41l-16.62,0c.19-1.07.7-4,1.22-8.18l0,0a.38.38,0,0,0,0-.37c.2-1.61.39-3.38.57-5.28a.34.34,0,0,0,0-.22c.76-8.14,1.17-18.54-.11-28h0a.42.42,0,0,0,.3-.15l6.51-8.56C290.06,194.5,290.14,200.82,289.46,205.49ZM266,216.76l14.63,9.75c-.16,1.69-.33,3.27-.51,4.73L263.9,220.76A41.11,41.11,0,0,1,266,216.76Zm21.82-28a.43.43,0,0,0-.1.09l-6.54,8.59c-.14-1-.3-1.91-.48-2.84a.38.38,0,0,0,.22-.13l5.85-7.71A16.47,16.47,0,0,1,287.85,188.76Zm-10.28-7.17.77,0a10.19,10.19,0,0,1,7.56,3.86c.16.2.31.41.46.62l-5.8,7.64a39.33,39.33,0,0,0-4.33-12.05A9.71,9.71,0,0,1,277.57,181.59Zm-7.52,29.6a.27.27,0,0,0,.06-.1,12.73,12.73,0,0,0,0-9c-1.33-3.61-2.42-12.73,1.14-17.49a7.17,7.17,0,0,1,4.23-2.77c6.72,11.1,6.5,30.38,5.29,43.83l-14.32-9.54A41.44,41.44,0,0,1,270.05,211.19Zm-9.87,29.12a34.54,34.54,0,0,1,.53-9.44,41.77,41.77,0,0,1,2.88-9.41l16.46,10.6c-.54,4.31-1.08,7.34-1.25,8.27l-18.61,0Zm49.92-.09,0,.07H296.94c0-.84.08-2.91.25-5.7.49-.62,5-6.2,10.77-7.64A20.6,20.6,0,0,1,310.1,240.22Z" fill="inherit"/></g><g id="change2_25"><path d="M77.56,57.25a1.63,1.63,0,0,1-1-.37A1.58,1.58,0,0,1,76.1,55l4.08-9.59a.83.83,0,0,0-.08-.79.81.81,0,0,0-.7-.38H70.26a1.59,1.59,0,0,1-1.59-1.59V21.55A1.59,1.59,0,0,1,70.26,20h66a1.59,1.59,0,0,1,1.59,1.59V42.68a1.59,1.59,0,0,1-1.59,1.59H98a.86.86,0,0,0-.46.14L78.44,57A1.57,1.57,0,0,1,77.56,57.25Zm-7.3-36.54a.84.84,0,0,0-.84.84V42.68a.85.85,0,0,0,.84.84H79.4a1.61,1.61,0,0,1,1.33.71,1.57,1.57,0,0,1,.14,1.5l-4.08,9.6a.84.84,0,0,0,1.24,1L97.11,43.78a1.58,1.58,0,0,1,.87-.26h38.27a.84.84,0,0,0,.84-.84V21.55a.83.83,0,0,0-.84-.84Z" fill="inherit"/></g><g id="change4_2"><path d="M368.56,61.13c-2,3.62-6.14,6.41-6.14,6.41-10.61-1.11-4.75-20.79-4.75-20.79C364.65,49.82,370.51,57.5,368.56,61.13Z" fill="#f2dcd1"/></g><g id="change1_17"><path d="M375.12,73.41A32.2,32.2,0,0,0,379,83.73c2.51,4,6.28,2.65,6.28,2.65L400,127.13,358.37,138l3.07-27.49a15.34,15.34,0,0,1-8.09,7.4c-5.72,2.09-29.3-2.38-29.3-2.38l7.39-14.79,16.75,1s9.34-16.19,11.86-22.46c2-5,8-7.34,10.44-8.09a3.91,3.91,0,0,1,2.53,0A3.15,3.15,0,0,1,375.12,73.41Z" fill="#fff"/></g><g id="change2_26"><path d="M358.37,138.38A.38.38,0,0,1,358,138l2.87-25.69a15.33,15.33,0,0,1-7.39,6c-5.75,2.1-28.54-2.17-29.5-2.36a.35.35,0,0,1-.27-.2.38.38,0,0,1,0-.33l7.4-14.79a.36.36,0,0,1,.35-.21l16.52,1c1.08-1.88,9.4-16.41,11.72-22.21,2-5.12,8.15-7.52,10.67-8.31a4.3,4.3,0,0,1,2.79.06h0a3.47,3.47,0,0,1,2.32,2.44l.08.34a31.24,31.24,0,0,0,3.78,9.87c2.32,3.73,5.69,2.55,5.83,2.5a.41.41,0,0,1,.29,0,.41.41,0,0,1,.2.21L400.31,127a.44.44,0,0,1,0,.3.41.41,0,0,1-.24.19l-41.58,10.88Zm3.07-28.23h.1a.38.38,0,0,1,.28.4l-3,26.95,40.65-10.64-14.39-40a5.75,5.75,0,0,1-6.37-2.9,32,32,0,0,1-3.87-10.1l-.08-.34a2.72,2.72,0,0,0-1.86-1.91h0a3.52,3.52,0,0,0-2.29,0c-2.43.76-8.28,3-10.2,7.87-2.5,6.23-11.8,22.35-11.89,22.51a.37.37,0,0,1-.35.18l-16.49-1-7.06,14.13c3.4.62,23.5,4.17,28.61,2.29a15,15,0,0,0,7.88-7.19A.37.37,0,0,1,361.44,110.15Z" fill="inherit"/></g><g id="change2_27"><path d="M361.16,77.27a.36.36,0,0,1-.36-.3,8.4,8.4,0,0,1,4.51-8.78,41.3,41.3,0,0,1,4-1.81c4.46-1.82,8.67-3.54,10.85-10a.38.38,0,0,1,.48-.23.37.37,0,0,1,.23.47c-2.29,6.77-6.86,8.63-11.28,10.43a41.29,41.29,0,0,0-4,1.78,7.65,7.65,0,0,0-4.14,8,.38.38,0,0,1-.29.44Zm1.46-9.41c.33-.21,8-5.22,10.26-7.59.21-.23.46-.48.74-.76,2.64-2.63,8.14-8.11,4.63-16.67a.36.36,0,0,0-.48-.2.37.37,0,0,0-.21.49c3.31,8.09-1.75,13.14-4.46,15.85-.29.28-.55.54-.77.77-2.17,2.31-10,7.43-10.12,7.48a.38.38,0,0,0-.11.52.4.4,0,0,0,.32.17A.36.36,0,0,0,362.62,67.86Z" fill="inherit"/></g><g id="change3_8"><path d="M61.07,111.22l-4.84,4.09L76,130.2,72.23,138c-4.83,0-24.46-9.77-24.46-9.77" fill="#3698d5"/></g><g id="change2_28"><path d="M378.28,190.29l-.13,0a.37.37,0,0,1-.22-.48l17.3-47.07a.37.37,0,1,1,.7.26l-17.3,47.07A.38.38,0,0,1,378.28,190.29Z" fill="inherit"/></g><g id="change2_29"><path d="M72.23,138.38c-4.87,0-23.82-9.4-24.63-9.8a.38.38,0,1,1,.34-.67c.19.09,19,9.42,24.06,9.72l3.48-7.32L56,115.61a.36.36,0,0,1-.15-.29A.36.36,0,0,1,56,115l4.84-4.1a.38.38,0,0,1,.53,0,.37.37,0,0,1,0,.52l-4.48,3.8,19.35,14.6a.37.37,0,0,1,.11.46l-3.72,7.81A.37.37,0,0,1,72.23,138.38Z" fill="inherit"/></g></g><g data-name="Layer 3"><g id="change2_30"><path d="M299.22,35.89A17.95,17.95,0,0,1,299.16,0h.06a17.95,17.95,0,0,1,.06,35.89Zm0-35.14h-.06a17.2,17.2,0,0,0,.06,34.39h.06A17.2,17.2,0,0,0,299.22.75Z" fill="inherit"/></g><g id="change2_31"><path d="M323.09,76.52a15,15,0,1,1,15-15A15,15,0,0,1,323.09,76.52Zm0-29.26a14.26,14.26,0,1,0,14.26,14.26A14.28,14.28,0,0,0,323.09,47.26Z" fill="inherit"/></g><g id="change3_9"><path d="M323.09,57.7l5-2.64-1,5.58,4.05,4-5.6.82-2.51,5.07-2.5-5.07-5.6-.82,4.05-4-1-5.58Z" fill="#3698d5"/></g><g id="change2_32"><path d="M299.25,27.79c-7.65-3.95-12.24-13-7.12-15.87,4.54-2.5,7.08,3.78,7.08,3.78s2.5-6.3,7.06-3.83C311.41,14.66,306.88,23.79,299.25,27.79Z" fill="inherit"/></g></g></svg>